<svg xmlns="http://www.w3.org/2000/svg" xmlns:xlink="http://www.w3.org/1999/xlink" width="47.532" height="47.531" viewBox="0 0 47.532 47.531">
  <defs>
    <linearGradient id="linear-gradient" x1="0.146" y1="0.147" x2="0.854" y2="0.859" gradientUnits="objectBoundingBox">
      <stop offset="0" stop-color="#4676ed"/>
      <stop offset="0.185" stop-color="#436de4"/>
      <stop offset="0.487" stop-color="#3b54cd"/>
      <stop offset="0.865" stop-color="#2f2da8"/>
      <stop offset="1" stop-color="#2b1e99"/>
    </linearGradient>
  </defs>
  <g id="Group_32440" data-name="Group 32440" transform="translate(-1195.136 -4734.682)">
    <g id="Group_14174" data-name="Group 14174">
      <g id="Group_13395" data-name="Group 13395" transform="translate(1195.136 4734.682)">
        <path id="Path_14119" data-name="Path 14119" d="M52.813-28.172A23.767,23.767,0,0,0,29.046-51.937,23.765,23.765,0,0,0,5.281-28.172,23.773,23.773,0,0,0,25.334-4.694V-21.3H19.3v-6.871h6.035v-5.235c0-5.957,3.548-9.247,8.976-9.247a36.486,36.486,0,0,1,5.32.465v5.848h-3c-2.953,0-3.873,1.832-3.873,3.711v4.459h6.591L38.3-21.3H32.76V-4.694A23.773,23.773,0,0,0,52.813-28.172Z" transform="translate(-5.281 51.937)" fill="url(#linear-gradient)"/>
        <path id="Path_14120" data-name="Path 14120" d="M32.9-24.873l1.053-6.871H27.367V-36.2c0-1.879.92-3.711,3.873-3.711h3v-5.848a36.486,36.486,0,0,0-5.32-.465c-5.427,0-8.976,3.29-8.976,9.247v5.235H13.9v6.871H19.94V-8.266a23.889,23.889,0,0,0,3.712.288,23.926,23.926,0,0,0,3.714-.288V-24.873Z" transform="translate(0.113 55.509)" fill="#fff"/>
      </g>
    </g>
  </g>
</svg>
